<svg width="27" height="28" viewBox="0 0 27 28" fill="none" xmlns="http://www.w3.org/2000/svg">
<path d="M22.5 13.8579V20.6224C22.5 23.114 20.4862 25.132 18 25.132H9C6.51375 25.132 4.5 23.114 4.5 20.6224V13.8579C4.5 13.2378 5.00625 12.7305 5.625 12.7305H7.84125C8.46 12.7305 8.96625 13.2378 8.96625 13.8579V17.398C8.96625 18.2323 9.4275 18.9989 10.1587 19.3935C10.485 19.5739 10.845 19.6641 11.2163 19.6641C11.6438 19.6641 12.0713 19.5401 12.4425 19.292L13.5113 18.593L14.5013 19.2582C15.1875 19.7204 16.065 19.7768 16.7963 19.3822C17.5388 18.9876 18 18.2323 18 17.3867V13.8579C18 13.2378 18.5063 12.7305 19.125 12.7305H21.375C21.9937 12.7305 22.5 13.2378 22.5 13.8579Z" fill="#FA67A0"/>
<path d="M24.1875 8.21967V9.34709C24.1875 10.5872 23.5912 11.6019 21.9375 11.6019H5.0625C3.34125 11.6019 2.8125 10.5872 2.8125 9.34709V8.21967C2.8125 6.97952 3.34125 5.96484 5.0625 5.96484H21.9375C23.5912 5.96484 24.1875 6.97952 24.1875 8.21967Z" fill="#FA67A0"/>
<path d="M13.0941 5.96536H6.88415C6.50165 5.54822 6.5129 4.90559 6.9179 4.49972L8.5154 2.89879C8.93165 2.48165 9.6179 2.48165 10.0341 2.89879L13.0941 5.96536Z" fill="#FA67A0"/>
<path d="M20.1055 5.96536H13.8955L16.9555 2.89879C17.3718 2.48165 18.058 2.48165 18.4743 2.89879L20.0718 4.49972C20.4768 4.90559 20.488 5.54822 20.1055 5.96536Z" fill="#FA67A0"/>
<path d="M15.7173 12.7305C16.3361 12.7305 16.8423 13.2378 16.8423 13.8579V17.3867C16.8423 18.2886 15.8411 18.8298 15.0986 18.3224L14.0861 17.646C13.7148 17.398 13.2311 17.398 12.8486 17.646L11.7911 18.345C11.0486 18.8411 10.0586 18.2999 10.0586 17.4092V13.8579C10.0586 13.2378 10.5648 12.7305 11.1836 12.7305H15.7173Z" fill="#FA67A0"/>
</svg>
